<svg width="35" height="35" viewBox="0 0 35 35" fill="none" xmlns="http://www.w3.org/2000/svg">
<path d="M30.625 7.65625H17.5C16.9021 7.65625 16.4062 7.16042 16.4062 6.5625C16.4062 5.96458 16.9021 5.46875 17.5 5.46875H30.625C31.2229 5.46875 31.7188 5.96458 31.7188 6.5625C31.7188 7.16042 31.2229 7.65625 30.625 7.65625Z" fill="white"/>
<path d="M30.625 14.9479H17.5C16.9021 14.9479 16.4062 14.4521 16.4062 13.8542C16.4062 13.2563 16.9021 12.7604 17.5 12.7604H30.625C31.2229 12.7604 31.7188 13.2563 31.7188 13.8542C31.7188 14.4521 31.2229 14.9479 30.625 14.9479Z" fill="white"/>
<path d="M30.625 22.2396H4.375C3.77708 22.2396 3.28125 21.7437 3.28125 21.1458C3.28125 20.5479 3.77708 20.0521 4.375 20.0521H30.625C31.2229 20.0521 31.7188 20.5479 31.7188 21.1458C31.7188 21.7437 31.2229 22.2396 30.625 22.2396Z" fill="white"/>
<path d="M30.625 29.5312H4.375C3.77708 29.5312 3.28125 29.0354 3.28125 28.4375C3.28125 27.8396 3.77708 27.3438 4.375 27.3438H30.625C31.2229 27.3438 31.7188 27.8396 31.7188 28.4375C31.7188 29.0354 31.2229 29.5312 30.625 29.5312Z" fill="white"/>
</svg>
